<svg viewBoxSize="575" data-root-id="3143658920780" xmlns="http://www.w3.org/2000/svg" xmlns:xlink="http://www.w3.org/1999/xlink" version="1.1" id="Layer_1" x="210.109" y="172.5" viewBox="252.00003051757812 196.89999389648438 195.89999389648438 291.1000061035156" xml:space="preserve" height="230" width="154.78125" preserveAspectRatio="xMinYMin" zoom="1" editorType="buyer" data-layer-role="icon" style="position: absolute; height: 230px; width: 154.781px; top: 172.5px; left: 210.109px;"><path d="M403.5,390.7c0,18.4-3.8,33-11.5,43.9c-7.6,10.9-21.6,16.4-41.8,16.4c-10.9,0-19.9-1.6-26.9-4.9s-12.5-7.9-16.4-13.8   c-3.9-5.9-6.6-12.9-8.2-21c-1.6-8.1-2.3-17-2.3-26.6v-14h-44.4v20.6c0,31.8,8.4,55.9,25.2,72.2c16.8,16.4,40.8,24.5,72,24.5   c18.7,0,34.4-2.6,47-7.7c12.6-5.1,22.7-12,30.4-20.6c7.6-8.6,13.1-18.3,16.4-29.2c3.3-10.9,4.9-22,4.9-33.2v-27.1h-44.4V390.7z" name="Layer %{number}" zoom="1" data-layer-id="5257514720780" style="fill: rgb(73, 66, 248); fill-opacity: 1;"></path><polygon points="403.5,223.9 403.5,346.2 447.9,346.2 447.9,196.9  " name="Layer %{number}" zoom="1" data-layer-id="8545085420780" style="fill: rgb(73, 66, 248); fill-opacity: 1;"></polygon><circle cx="284.7" cy="248.9" r="25" name="Layer %{number}" zoom="1" data-layer-id="1616393220780" style="fill: rgb(73, 66, 248); fill-opacity: 1;"></circle></svg>